<svg width="24" height="24" viewBox="0 0 24 24" fill="none" xmlns="http://www.w3.org/2000/svg">
<path d="M4 5.14286C4 4.30932 4.31607 3.50992 4.87868 2.92052C5.44129 2.33112 6.20435 2 7 2C7.79565 2 8.55871 2.33112 9.12132 2.92052C9.68393 3.50992 10 4.30932 10 5.14286C10 5.97639 9.68393 6.77579 9.12132 7.36519C8.55871 7.95459 7.79565 8.28571 7 8.28571C6.20435 8.28571 5.44129 7.95459 4.87868 7.36519C4.31607 6.77579 4 5.97639 4 5.14286ZM14.1685 7.632L14.2315 7.68229C14.8679 8.17651 15.6651 8.38694 16.4491 8.26766C17.2331 8.14838 17.9403 7.70907 18.4162 7.0456C18.8922 6.38213 19.0983 5.54837 18.9896 4.72627C18.8809 3.90417 18.4663 3.16049 17.8361 2.6575C17.2059 2.15452 16.4115 1.93308 15.626 2.04151C14.8406 2.14994 14.128 2.57944 13.6437 3.23627C13.1595 3.8931 12.9428 4.72393 13.0412 5.54746C13.1395 6.37099 13.5447 7.12035 14.1685 7.632ZM8.902 9.85714C9.0904 9.4834 9.34883 9.15331 9.66182 8.88661C9.97481 8.61992 10.3359 8.4221 10.7236 8.30499C11.1112 8.18789 11.5174 8.1539 11.9179 8.20506C12.3184 8.25622 12.7049 8.39148 13.0544 8.60274C13.4038 8.81401 13.7089 9.09694 13.9516 9.43462C14.1942 9.77229 14.3694 10.1578 14.4665 10.568C14.5637 10.9782 14.5808 11.4048 14.517 11.8221C14.4532 12.2394 14.3096 12.639 14.095 12.9969C13.6821 13.6853 13.0305 14.1794 12.2772 14.3752C11.5239 14.571 10.7275 14.4533 10.0552 14.0469C9.38301 13.6404 8.8873 12.9769 8.67225 12.1956C8.4572 11.4143 8.53955 10.5761 8.902 9.85714ZM3.25 9.85714H7.255C6.98841 10.6547 6.93045 11.5125 7.08712 12.3415C7.2438 13.1705 7.60941 13.9404 8.146 14.5714H7.75C6.97666 14.5713 6.22217 14.8216 5.58983 15.288C4.95748 15.7544 4.47817 16.4141 4.2175 17.1769C3.714 16.965 3.24257 16.6775 2.818 16.3236C1.69 15.3729 1 13.968 1 12.2143C1 11.5891 1.23705 10.9896 1.65901 10.5475C2.08097 10.1055 2.65326 9.85714 3.25 9.85714ZM15.25 14.5714C16.0231 14.5714 16.7774 14.8217 17.4095 15.2881C18.0416 15.7545 18.5206 16.4142 18.781 17.1769C19.291 16.9584 19.7635 16.674 20.182 16.3236C21.31 15.3729 22 13.968 22 12.2143C22 11.5891 21.7629 10.9896 21.341 10.5475C20.919 10.1055 20.3467 9.85714 19.75 9.85714H15.745C15.91 10.349 16 10.8786 16 11.4286C16.0014 12.5885 15.5932 13.7079 14.854 14.5714H15.25ZM17.3305 17.6011C17.44 17.8777 17.5 18.1826 17.5 18.5C17.5 20.2537 16.8115 21.6586 15.682 22.6093C14.5705 23.5443 13.0795 24 11.5 24C9.9205 24 8.4295 23.5443 7.318 22.6093C6.19 21.6586 5.5 20.2537 5.5 18.5C5.49921 18.1902 5.55687 17.8833 5.66966 17.597C5.78245 17.3106 5.94815 17.0504 6.15724 16.8314C6.36633 16.6124 6.61469 16.4388 6.88803 16.3206C7.16137 16.2024 7.4543 16.142 7.75 16.1429H15.25C15.6957 16.1427 16.1313 16.2813 16.5017 16.5409C16.8721 16.8005 17.1606 17.1695 17.3305 17.6011Z" fill="black" />
</svg>
